<svg width="29" height="34" viewBox="0 0 29 34" fill="none" xmlns="http://www.w3.org/2000/svg">
<path d="M20.6754 24.0804C23.815 22.0542 25.8929 18.5199 25.8929 14.5C25.8929 8.20804 20.792 3.10714 14.5 3.10714C8.20804 3.10714 3.10714 8.20804 3.10714 14.5C3.10714 18.5199 5.18504 22.0478 8.32455 24.0804C8.40223 25.2002 8.58348 26.5402 8.79063 27.7766L8.80357 27.8413C3.625 25.621 0 20.4877 0 14.5C0 6.49263 6.49263 0 14.5 0C22.5074 0 29 6.49263 29 14.5C29 20.4877 25.375 25.6275 20.1964 27.8413L20.2094 27.7701C20.41 26.5272 20.5978 25.1937 20.6754 24.0804ZM20.5266 21.6141C20.423 21.2451 20.2741 20.8955 20.0734 20.5654C19.698 19.9375 19.1996 19.465 18.6558 19.1154C19.9181 17.9761 20.7143 16.3319 20.7143 14.5C20.7143 11.0692 17.9308 8.28571 14.5 8.28571C11.0692 8.28571 8.28571 11.0692 8.28571 14.5C8.28571 16.3319 9.08192 17.9826 10.3442 19.1154C9.80045 19.465 9.30201 19.9375 8.92656 20.5654C8.72589 20.8955 8.57701 21.2451 8.47344 21.6141C6.46027 19.9051 5.17857 17.3482 5.17857 14.5C5.17857 9.35379 9.35379 5.17857 14.5 5.17857C19.6462 5.17857 23.8214 9.35379 23.8214 14.5C23.8214 17.3482 22.5397 19.9051 20.5266 21.6141ZM14.5 20.1964C16.6297 20.1964 18.6429 20.7531 18.6429 23.0317C18.6429 25.1679 17.8078 29.7703 17.3094 31.6346C16.9792 32.8645 15.7234 33.1493 14.5 33.1493C13.2766 33.1493 12.0272 32.8645 11.6906 31.6346C11.1857 29.7897 10.3571 25.1808 10.3571 23.0382C10.3571 20.7661 12.3703 20.2029 14.5 20.2029V20.1964ZM14.5 18.125C12.4998 18.125 10.875 16.5002 10.875 14.5C10.875 12.4998 12.4998 10.875 14.5 10.875C16.5002 10.875 18.125 12.4998 18.125 14.5C18.125 16.5002 16.5002 18.125 14.5 18.125Z" fill="#262C32"/>
</svg>
