<svg width="85" height="94" viewBox="0 0 85 94" fill="none" xmlns="http://www.w3.org/2000/svg">
<path d="M70.5335 93.4444C66.64 93.4444 63.3305 92.0817 60.6051 89.3562C57.8796 86.6308 56.5169 83.3213 56.5169 79.4278C56.5169 78.8827 56.5558 78.3173 56.6337 77.7318C56.7115 77.1493 56.8283 76.6244 56.9841 76.1572L24.0449 57.0011C22.7211 58.1692 21.2416 59.0834 19.6063 59.7437C17.971 60.4072 16.2579 60.7389 14.4669 60.7389C10.5733 60.7389 7.26385 59.3762 4.53839 56.6507C1.81293 53.9252 0.450195 50.6157 0.450195 46.7222C0.450195 42.8287 1.81293 39.5192 4.53839 36.7937C7.26385 34.0683 10.5733 32.7056 14.4669 32.7056C16.2579 32.7056 17.971 33.0357 19.6063 33.6961C21.2416 34.3595 22.7211 35.2753 24.0449 36.4433L56.9841 17.2872C56.8283 16.82 56.7115 16.2952 56.6337 15.7127C56.5558 15.1271 56.5169 14.5618 56.5169 14.0167C56.5169 10.1231 57.8796 6.81366 60.6051 4.08819C63.3305 1.36273 66.64 0 70.5335 0C74.427 0 77.7365 1.36273 80.462 4.08819C83.1875 6.81366 84.5502 10.1231 84.5502 14.0167C84.5502 17.9102 83.1875 21.2197 80.462 23.9451C77.7365 26.6706 74.427 28.0333 70.5335 28.0333C68.7425 28.0333 67.0294 27.7016 65.3941 27.0382C63.7588 26.3778 62.2793 25.4636 60.9555 24.2956L28.0163 43.4517C28.172 43.9189 28.2889 44.4437 28.3667 45.0262C28.4446 45.6118 28.4835 46.1771 28.4835 46.7222C28.4835 47.2673 28.4446 47.8311 28.3667 48.4136C28.2889 48.9992 28.172 49.5256 28.0163 49.9928L60.9555 69.1489C62.2793 67.9808 63.7588 67.0651 65.3941 66.4016C67.0294 65.7413 68.7425 65.4111 70.5335 65.4111C74.427 65.4111 77.7365 66.7738 80.462 69.4993C83.1875 72.2248 84.5502 75.5343 84.5502 79.4278C84.5502 83.3213 83.1875 86.6308 80.462 89.3562C77.7365 92.0817 74.427 93.4444 70.5335 93.4444ZM70.5335 18.6889C71.8573 18.6889 72.9662 18.2419 73.8601 17.348C74.7572 16.4509 75.2057 15.3405 75.2057 14.0167C75.2057 12.6929 74.7572 11.5824 73.8601 10.6854C72.9662 9.79142 71.8573 9.34444 70.5335 9.34444C69.2097 9.34444 68.1009 9.79142 67.2069 10.6854C66.3098 11.5824 65.8613 12.6929 65.8613 14.0167C65.8613 15.3405 66.3098 16.4509 67.2069 17.348C68.1009 18.2419 69.2097 18.6889 70.5335 18.6889ZM14.4669 51.3944C15.7907 51.3944 16.9011 50.9459 17.7982 50.0488C18.6921 49.1549 19.1391 48.046 19.1391 46.7222C19.1391 45.3984 18.6921 44.288 17.7982 43.3909C16.9011 42.497 15.7907 42.05 14.4669 42.05C13.1431 42.05 12.0326 42.497 11.1356 43.3909C10.2416 44.288 9.79464 45.3984 9.79464 46.7222C9.79464 48.046 10.2416 49.1549 11.1356 50.0488C12.0326 50.9459 13.1431 51.3944 14.4669 51.3944ZM70.5335 84.1C71.8573 84.1 72.9662 83.6515 73.8601 82.7544C74.7572 81.8604 75.2057 80.7516 75.2057 79.4278C75.2057 78.104 74.7572 76.9951 73.8601 76.1012C72.9662 75.2041 71.8573 74.7556 70.5335 74.7556C69.2097 74.7556 68.1009 75.2041 67.2069 76.1012C66.3098 76.9951 65.8613 78.104 65.8613 79.4278C65.8613 80.7516 66.3098 81.8604 67.2069 82.7544C68.1009 83.6515 69.2097 84.1 70.5335 84.1Z" fill="url(#paint0_linear_731_3)"/>
<defs>
<linearGradient id="paint0_linear_731_3" x1="-2.00797e-06" y1="1.4384e-06" x2="85" y2="93" gradientUnits="userSpaceOnUse">
<stop stop-color="#DB00A4"/>
<stop offset="1" stop-color="#14E6EB"/>
</linearGradient>
</defs>
</svg>
