<svg width="42" height="29" viewBox="0 0 42 29" fill="none" xmlns="http://www.w3.org/2000/svg">
<path d="M40.5567 4.52755C40.321 3.65169 39.8593 2.85312 39.2179 2.21175C38.5766 1.57038 37.778 1.10871 36.9021 0.872959C33.6766 2.64572e-07 20.7154 0 20.7154 0C20.7154 0 7.75418 2.64572e-07 4.52866 0.872959C3.65281 1.10871 2.85423 1.57038 2.21286 2.21175C1.57149 2.85312 1.10983 3.65169 0.874072 4.52755C0.271798 7.81708 -0.0204694 11.1559 0.0011133 14.5C-0.0204694 17.8441 0.271798 21.1829 0.874072 24.4725C1.10983 25.3483 1.57149 26.1469 2.21286 26.7883C2.85423 27.4296 3.65281 27.8913 4.52866 28.127C7.75418 29 20.7154 29 20.7154 29C20.7154 29 33.6766 29 36.9021 28.127C37.778 27.8913 38.5766 27.4296 39.2179 26.7883C39.8593 26.1469 40.321 25.3483 40.5567 24.4725C41.159 21.1829 41.4513 17.8441 41.4297 14.5C41.4513 11.1559 41.159 7.81708 40.5567 4.52755ZM16.5725 20.7143V8.28572L27.3292 14.5L16.5725 20.7143Z" fill="#262C32"/>
</svg>
